<?xml version="1.0" encoding="UTF-8"?>
<svg xmlns="http://www.w3.org/2000/svg" xmlns:xlink="http://www.w3.org/1999/xlink" viewBox="0 0 146.12 156.66">
  <defs>
    <style>
      .m {
        fill: url(#c);
      }

      .m, .n, .o, .p {
        stroke-width: 0px;
      }

      .q {
        fill: #f6f6f6;
      }

      .q, .r, .s, .t {
        stroke: #1d1d1b;
        stroke-miterlimit: 10;
      }

      .r {
        fill: #3c3c3b;
      }

      .n {
        fill: #ededed;
      }

      .s {
        font-family: JavaneseText, 'Javanese Text';
        font-size: 8px;
        stroke-width: .25px;
      }

      .s, .o, .u {
        fill: #1d1d1b;
      }

      .t {
        fill: none;
      }

      .u {
        font-family: Microsoft-Himalaya, 'Microsoft Himalaya';
        font-size: 12px;
      }

      .p {
        fill: #c6c6c6;
      }
    </style>
    <radialGradient id="c" data-name="Degradado sin nombre 6" cx="73.06" cy="73.06" fx="73.06" fy="73.06" r="73.06" gradientUnits="userSpaceOnUse">
      <stop offset="0" stop-color="#fff" stop-opacity=".73"/>
      <stop offset=".27" stop-color="rgba(252, 252, 252, .72)" stop-opacity=".72"/>
      <stop offset=".42" stop-color="rgba(242, 242, 242, .69)" stop-opacity=".69"/>
      <stop offset=".54" stop-color="rgba(225, 225, 225, .63)" stop-opacity=".63"/>
      <stop offset=".65" stop-color="rgba(201, 201, 201, .56)" stop-opacity=".56"/>
      <stop offset=".74" stop-color="rgba(170, 170, 170, .46)" stop-opacity=".46"/>
      <stop offset=".83" stop-color="rgba(132, 132, 131, .34)" stop-opacity=".34"/>
      <stop offset=".91" stop-color="rgba(87, 87, 86, .19)" stop-opacity=".19"/>
      <stop offset=".99" stop-color="rgba(36, 36, 34, .02)" stop-opacity=".02"/>
      <stop offset="1" stop-color="#1d1d1b" stop-opacity="0"/>
    </radialGradient>
  </defs>
  <g id="a" data-name="04-B&amp;amp;W minimalist">
    <g id="b" data-name="Lines background">
      <g>
        <polygon class="n" points="82.12 145.57 74.93 146.11 65.42 145.71 59.73 144.9 55.48 143.99 73.07 72.53 82.12 145.57"/>
        <polygon class="n" points="37.71 136.94 31.58 133.15 24.12 127.24 19.99 123.23 17.09 120.01 73.32 72.53 37.71 136.94"/>
        <polygon class="n" points="6.86 103.85 4.12 97.19 1.57 88.02 .58 82.35 .12 78.03 73.52 72.68 6.86 103.85"/>
        <polygon class="n" points="1.34 58.95 3.05 51.95 6.37 43.03 8.9 37.86 11.07 34.1 73.6 72.91 1.34 58.95"/>
        <polygon class="n" points="23.28 19.38 28.77 14.72 36.7 9.46 41.78 6.77 45.75 5 73.53 73.15 23.28 19.38"/>
        <polygon class="n" points="64.28 .26 71.46 -.28 80.97 .12 86.67 .94 90.91 1.84 73.33 73.3 64.28 .26"/>
        <polygon class="n" points="108.69 8.9 114.82 12.68 122.27 18.6 126.4 22.6 129.31 25.83 73.08 73.3 108.69 8.9"/>
        <polygon class="n" points="139.54 41.98 142.27 48.65 144.83 57.82 145.82 63.48 146.27 67.8 72.87 73.16 139.54 41.98"/>
        <polygon class="n" points="145.05 86.88 143.34 93.88 140.02 102.81 137.49 107.97 135.32 111.73 72.79 72.92 145.05 86.88"/>
        <polygon class="n" points="123.12 126.45 117.62 131.11 109.69 136.38 104.61 139.07 100.64 140.83 72.87 72.68 123.12 126.45"/>
      </g>
      <g>
        <polygon class="p" points="105.9 138.47 99.31 141.37 90.21 144.14 84.57 145.27 80.27 145.83 72.95 72.6 105.9 138.47"/>
        <polygon class="p" points="61.12 145.18 54.09 143.64 45.1 140.54 39.87 138.14 36.06 136.06 73.18 72.51 61.12 145.18"/>
        <polygon class="p" points="20.96 124.28 16.17 118.91 10.72 111.11 7.9 106.09 6.04 102.17 73.42 72.58 20.96 124.28"/>
        <polygon class="p" points=".74 83.76 .03 76.6 .2 67.09 .87 61.38 1.67 57.11 73.58 72.78 .74 83.76"/>
        <polygon class="p" points="8.2 39.11 11.84 32.89 17.57 25.29 21.47 21.07 24.62 18.09 73.59 73.03 8.2 39.11"/>
        <polygon class="p" points="40.49 7.36 47.08 4.47 56.18 1.69 61.82 .57 66.13 0 73.45 73.24 40.49 7.36"/>
        <polygon class="p" points="85.27 .66 92.3 2.19 101.3 5.29 106.52 7.7 110.33 9.78 73.21 73.32 85.27 .66"/>
        <polygon class="p" points="125.44 21.55 130.23 26.93 135.68 34.72 138.49 39.74 140.35 43.66 72.97 73.25 125.44 21.55"/>
        <polygon class="p" points="145.65 62.07 146.37 69.23 146.19 78.74 145.52 84.46 144.72 88.72 72.82 73.05 145.65 62.07"/>
        <polygon class="p" points="138.19 106.73 134.56 112.94 128.83 120.54 124.93 124.76 121.77 127.75 72.81 72.8 138.19 106.73"/>
      </g>
    </g>
    <circle id="d" data-name="Difuminado blanco" class="m" cx="73.06" cy="73.06" r="73.06"/>
    <g id="e" data-name="Body">
      <path class="q" d="M113.27,68.77c-.51,1.09-.65,2.44-.88,3.61-.45,2.26-.85,4.53-1.24,6.8-.85,4.95-1.6,9.93-2.34,14.88-1.5,10.11-3.57,20.13-5.3,30.2,0,0-.25,3.85.06,6.06s.2,4.77,1.04,7.74c.7,2.49,15.86-9.78,15.85-9.63,0,0-.28-8.53,0-10.33s4.39-21.35,4.39-21.35c0,0,4.33-16.23,5.21-27.35.52-6.51-.76-13.34-3.44-19.29-2.44-5.42-6.52-9.09-12.3-10.79-2.69-.79-5.39-1.24-8.12-1.81-3.53-.75-6.77-2.28-9.87-4.1-8.59-5.05-7.39-13.2-7.39-13.2,0,0-.44-6.38.32-12.32.21-1.67.79-5.4,3.21-5.15-4.19-1.15-7.45-1.71-11.28-2.29-1.49-.22-3.11-.42-4.61-.36-2.94.1-5.85.08-8.79.2-2.78.12-5.86.48-8.58,1.12-1.88.44-3.75.91-5.61,1.41s-3.57.99-5.34,1.52c.7,2.53,1.5,5.17,1.77,7.79.22,1.46.33,3.21,1.06,4.54.51.92,1.56,1.19,2.54,1.24.88.05,2.12.07,2.96-.24.52-.19,5.54-3,5.54-2.78v4.37s-.02,7.36-2.76,10.25-7.25,6.39-11.37,7.25c-2.85.59-5.7,1.12-8.55,1.73-3.13.67-6.07,1.25-8.8,3.02-1.26.81-2.47,1.7-3.57,2.72-3.54,3.27-5.81,7.63-6.75,12.34-.23,1.14-.38,2.3-.47,3.46-1.09,14.12,7.2,45.57,7.2,45.57l2.7,14.45s.49,11.05.19,11.71c-.49,1.05,15.15,9,15.49,8.66,0,0,2.27-12.74.76-19.18-1.52-6.44-5.02-27.57-5.02-27.57,0,0-4.26-23.73-5.92-26.34s13.45,41.26,15.73,48.27c2.27,7.01-.9,16.48-.9,16.48l-3.46,8.53s5.21,1.98,5.72,2.16c1.94.67,3.89,1.1,5.91,1.42,3.94.63,7.88,1.38,11.88,1.52,4.8.17,9.7-.11,14.48-.89s9.42-2.2,14.04-3.79c1.59-.55,3.18-1.09,4.76-1.64,0,0-3.66-7.33-4.17-11.37s1.09-14.55,2.08-17.97c3.41-11.75,12.86-43.24,11.94-41.27Z"/>
    </g>
    <circle id="f" data-name="Circle" class="t" cx="73.06" cy="73.06" r="73.06"/>
    <g id="g" data-name="Magnifier">
      <g id="h" data-name="Magnifier">
        <g id="i" data-name="Veins">
          <path class="o" d="M76.17,39.16l3.36,3.25c2.32,2.25,3.61,5.31,4.11,8.45.37,1.51.84,3.01,1.34,4.48,0,.03,1.25,6.93,1.26,6.96,0,0,.15,3.36.16,3.37,0,.01,0,.03,0,.04,0,0-.22,2.81-.22,2.81,0,.02,0,.06-.01.08-.37,1.18-.78,2.39-1.02,3.56l-.46,3.72c-.04.27-.17,1.13-.24,1.39,1.04,1.6,2.9,2.74,4.38,3.97.43,2.62.87,5.34,1.96,7.76,1.26,2.27,3.44,3.97,5.27,5.83,0,0-.12.16-.12.16-1.15-.71-2.22-1.54-3.2-2.47-3.25-2.71-3.39-7.33-4.1-11.2-1.26-.82-3.14-2.19-4.35-3.53-.09-.15-.23-.24-.23-.56l.08-.47.11-.92.35-3.75c.21-1.17.69-2.79.95-3.6,0,0,.16-2.81.16-2.81,0,.22-.23-3.35-.22-3.3.04.24-1.4-6.9-1.39-6.85-.43-1.07-1.05-3.01-1.43-4.4-.49-3.06-1.89-5.71-3.96-7.99,0,0-2.68-3.83-2.68-3.83l.15-.13h0Z"/>
          <path class="o" d="M81.1,44.22c1.19.14,2.59.17,3.66-.46,1.17-.35,2.28-.88,3.19-1.67.79-.47,1.56.54.84,1.2-.32.36-.97.85-1.34,1.16-1.53,1.14-3.14,2.51-4.85,3.37,0,0-.1-.23-.1-.23,1.19-.47,2.15-1.4,3.03-2.31.81-.88,1.56-1.92,2.21-2.92-.16.23-.14.61.15.87.15.14.43.21.59.16.37-.12.2-.09.25-.09-1.69,2.33-5.03,1.97-7.51,2.87,0,0-.12-1.95-.12-1.95h0Z"/>
          <path class="o" d="M81.05,46.48c-.65-.29-.99,0-1.41.13-2.13.96-4.06,2.32-6.2,3.26-.28.15-.74.06-1.02.05,0,0-1.3-.06-1.3-.06,0,0,.26-.09.26-.09l-6.07,4.77c-.06.05-.07.06-.14.06-.28.15-.57.19-.9.14.13.03.27-.04.34-.13.05-.09.04-.06.05-.1.02.86.11,1.94-.64,2.64-2.11,2.52-5.13,4.03-8.29,2.43,0,0,.14-.02.14-.02-.59.82-1.61,1.53-2.67,1.27,0,0-.01,0-.01,0l-.1.02c-.13-.87-.22-1.74-.16-2.62l.03.07-.88-1.14-.02-.02v-.03s-.34-1.34-.34-1.34c-.01-.03.03.05.03.04-.55-.76-1.38-1.6-1.96-2.16-.56-.4-.85-1.07-.86-1.74-.01-.04,0-1.01,0-1.02.02.09.11.25.34.17.12-.06.12-.17.12-.14h0s0-.02,0-.02h0s0,0,0,0c-.01.17-.05.57-.07.74-.05,1.24-.37,2.44-.12,3.67,0,.05,0-.16,0-.15-.06,1.68.52,3.27.23,4.98-.31,2.42-.73,4.81-.66,7.25-.06.66-.55,1.1-.91,1.33-1.78.99-3.61,1.79-5.06,3.21,0,0-.57-.61-.57-.61,1.19-1.17,2.63-2.08,4.06-2.86.68-.37,1.48-.83,1.45-1.16.09-.65.32-1.73.36-2.41.36-3.19,1.38-6.58.12-9.65.5-1.16.42-2.41.63-3.63.03-.19.06-.59.09-.78.05-.28.45-.25.47.02.01.06-.02.98-.02,1.07,0,.56.22,1.14.62,1.52.61.78,1.23,1.57,1.96,2.24v.04s.01,0,.01,0l.33,1.34c-.13-.21.88,1.13.85,1.09,0,0,.02.03.02.03.15.84.18,1.68.15,2.52,0,0-.12-.12-.12-.12.91-.22,1.69-.79,2.58-1.24,1.94.85,4.13.49,5.78-.81.6-.42,1.14-1.05,1.62-1.61.56-.51.72-1.04.63-1.85-.01-.32-.11-.67.09-.96.28-.37.77-.16,1.18-.07,0,0-.14.06-.14.06l5.93-4.95s.09-.08.09-.08h.17c.36-.02,1.58-.09,1.95-.11,0,0,.04,0,.04,0-.03-.02-.08-.02-.11,0,1.99-1.17,4.14-2.1,6.08-3.36.34-.28.76-.41.86-1.12l1.11,2.01h0Z"/>
          <path class="o" d="M42.84,68.68c.6-.67,1.65-1.63,2.33-1.79.22-.8.67-1.54,1.44-1.94.9-.32,1.2-.9,1.85-1.14,1.43-1.22,3.24-1.94,4.62-3.19,0,0,.19.16.19.16-1.2,1.35-3.08,2.65-4.61,3.18-.15.81-1.13,1.27-1.82,1.52-1.08.47-1.49,1.95-2.58,2.59-.4.3-.82.58-1.28.8l-.15-.2h0Z"/>
          <path class="o" d="M62.63,103.74c.78-2.08,1.52-4.22,1.74-6.44.06-.37,0-.78.4-1.19.25-.18.43-.14.52-.24.38-.31.45-.88.57-1.36.29-.9-.17-1.37.21-2.21.31-.78.67-1.37.97-2.18.9-.91,2.5-.7,3.34.08-.58-.42-1.44-.68-2.03-.27-.29.19-.43.51-.59.78-.69.46-.97,1.51-1.1,2.28.26,1-.12,1.98-.67,2.8-.19.39-.68.56-.98.66-.16.12-.23.55-.27.9-.28,2.25-1.14,4.37-1.89,6.49,0,0-.23-.09-.23-.09h0Z"/>
          <path class="o" d="M67.04,90.13c.13-.39.11-.66.05-.95-.48-2.27-.61-4.67,0-6.94.43-1.5,1.42-3.22.74-4.75-.09-.25-.27-.35-.23-.72l.03-.23c.62-.21,1.24-.46,1.83-.75.73-.4,1.66-.72,1.91-1.54.03-.12.09-.23.2-.33.65-.5,1.47.13,2.1.08.17-.01.16-.07.18-.21.29-1.91,3.13,1.07,3.79,1.56.86.91,2.39,1.63,2.95,2.71.1,2.66-.07,5.49-.87,8.08-.15.63-.36,1.32-.11,1.86.6,1.27.08,2.82-.52,4.01-.36.69-.83,1.07-1.34,1.73-.08.12.22-.58.2-.54-.17.6.23,1.14.38,1.67.69,2.11,1.77,4.22,2.02,6.45,0,1.75-1.02,3.31-2.18,4.54,0,0-.18-.18-.18-.18,1.51-1.57,2.61-3.8,1.72-5.95-.55-1.87-1.24-3.72-2.02-5.51-.11-.26-.22-.51-.55-.68,0,0,.22-.57.23-.55,1.27-.06,1.85-1.89,2.02-2.97.09-.66.16-1.28-.14-1.87-.15-.34-.15-.75-.08-1.08.38-1.64.98-3.21,1.09-4.9.17-1.19.17-3.06.14-3.91-1.13-.51-1.94-1.88-3.03-2.59-.93-.68-1.89-1.48-2.97-1.86-.04,0,.06-.01.07-.07-.04,1.16-1.11.92-1.84.68-.29-.09-.65-.13-.7-.06-.67,1.6-2.81,1.97-4.24,2.44,0,0,.02-.24.04-.22,1.18.09.87,2.58.76,3.4-.86,2.67-1.67,5.42-.92,8.24.16.54.12,1.19.7,1.5,0,0-1.25.43-1.25.43h0Z"/>
          <path class="o" d="M65.76,85.33c-.68,2.85-1.15,5.79-2.71,8.34-.58.65-1.47.71-2.25.74-1.53-.04-2.95-.31-4.35-.98-.48-.35-1.2-.04-1.72.39l-.12.1c-.14-.23-.68-.54-.77-.52-.41,1.01-1.76,1.15-2.7,1.21-.52-.07-1.07-.04-1.49-.41,0,0,.2-.15.2-.15.33.2.95.17,1.27.19.75-.12,1.71-.17,2.17-.78.15-.54.64-.69,1.1-.26.14.14.25.28.34.45h-.19c.25-.3.55-.54.91-.71.35-.18.88-.2,1.24.02,1.25.47,2.75.71,4.1.75.67.01,1.42-.06,1.78-.46.38-.47.68-1.18.95-1.82.64-1.31,1.66-4.77,2.24-6.1h0Z"/>
          <path class="o" d="M78.13,105.2c-.33-.96-.42-2.01-.77-2.95-.54-.85-1.47-1.42-2.36-1.85-.4.12-1.56-.27-1.96-.88-.39-.49-.85-1.53-1.56-1.26-.28-.14-.45-.35-.61-.57-.27-.44-.31-1.01-.94-1-.27-.02-.54.04-.78.14l-.04-.02c-1.05-.44-1.3-1.09-2.01-1.49-.25-.1-.55-.17-.81-.08,0,0-.09-.03-.09-.03-.62-.08-1.03-.45-1.25-1.02.26.04-2.26-.53-2.23-.53,0,0,.06-.24.06-.24.02,0,2.28.54,2.29.54.61.13,1.1.42,1.3,1.06,0,0-.09-.03-.09-.03.3.07.6.08.88.19.28.09.53.32.68.53.37.39.87.67,1.37.87h-.09c.53-.09,1.18-.15,1.55.32.23.45.4.95.89,1.12,0,0-.17.04-.1,0,.25-.14.48-.03.65.07.78.54.97,1.62,1.89,1.98.34.14.74.19,1.08.07.86.6,1.77,1.16,2.38,2.03.4.94.48,1.99.91,2.93,0,0-.24.08-.24.08h0Z"/>
          <path class="o" d="M48.73,66.72c-.12.18.06.46.21.59.86.64,1.98.88,3.04.83.12,0,.24.02.38-.18.28-.46.48-.19.71.05.11.13.23.16.35.16,1.08.14,2.18.1,3.26-.03.41-.1,1.15-.06,1.42-.36.11-.11.19-.21.37-.17.29.04.53.53.83.5,3.03.87,4.98,3.67,6.88,6.01.66.78,1.01,1.71,1.85,2.34,0,0-.74.43-.74.43-.03-.54-.32-.95-.57-1.36-.78-1.24-1.62-2.45-2.56-3.58-1.3-1.54-2.88-3.15-4.91-3.53-.11-.05-.24,0-.35.16-.21.3-.31.42-.65.21-.42-.24-1.03.03-1.5,0,0,0-2.98.23-2.98.23-.24.04-.55-.04-.76.15-.26.21-.55.45-.76-.04-.11-.24-.23-.25-.35-.28-1.24-.33-2.47-.71-3.63-1.26-.15-.06-.28-.07-.52-.2l.98-.68h0Z"/>
          <path class="o" d="M62.97,57.82c0,.29-.18.45-.3.67-1.01,1.43-1.25,3.14-1.67,4.78-.43,1.39-1.3,2.72-2.02,3.98-.22.3-.36.66-.53.99-.09.09-.09.25-.4.16l-.2-.15c-.17-.28-.03-.32.04-.43.64-.57,1.15-1.28,1.63-1.99,1.21-1.64,1.35-3.64,1.8-5.54.31-.79.76-2.16,1.47-2.61,0,0,.2.15.2.15h0Z"/>
          <path class="o" d="M70.97,68.79c-3.29-2.53-6.08-6.16-9.09-8.32-.64.07-1.59-.01-1.78-.77-.02-.17.16-.29.31-.28,0,0,0,.25,0,.25-.07.01-.08.02-.07.02.22.57.97.59,1.5.54,3.18,2.66,6.53,5.39,9.13,8.57h0Z"/>
          <path class="o" d="M80.21,77.71c.24.29.42.3.58.26.48-.08,1.01-.19,1.48-.31.47-.14.98-.31,1.44-.47.16-.06.33-.06.41-.42l.27,1.06c-.24-.28-.4-.2-.56-.18-.48.07-1.01.16-1.49.26-.47.11-.99.27-1.45.42-.16.04-.31.14-.39.5l-.28-1.11h0Z"/>
          <path class="o" d="M74.13,73.48c.17-.12.14-.25.14-.38,0-1.88-.07-3.79-.32-5.65-.1-.59-.16-1.22-.44-1.72-.06-.07-.25-.23-.26-.32-.4-1.25-.34-2.55-.44-3.83-.11-2.93-.1-6.16-.13-9.1,0,0,0-1.52,0-1.52-.02-.25.05-.5-.12-.76-.07-.13-.15-.26-.19-.38.03-.13-.23-.26.45-.37h.25c.67.14.41.26.44.39-.24.46-.37.59-.34,1.13-.1,4.52-.23,9.1.27,13.59.04.26.11.57.2.75.19.12.32.38.39.57.44,1.49.41,3.04.5,4.56.01.48.05,1.81.06,2.28.03.18-.08.62.15.76,0,0-.59,0-.59,0h0Z"/>
          <path class="o" d="M78.92,49.11c-.3.28-.64.48-1.01.6-.39.08-.83.04-1.2.06-.33.12-1.78.89-2.12,1.06-1.4.61-2.91,2.02-4.22,2.25-.34.22-.59.52-.8.86-.47.24-.96.43-1.44.63-.48.09-.97.19-1.46.25,0,0,.06-.03.06-.03-.42.62-.97,1.12-1.64,1.46,0,0-.94.14-.94.14l-.06-.24.9-.3-.09.04c.46-.58,1.04-1.02,1.72-1.32,1.02-.22,1.84-.49,2.82-.85,0,0-.05.03-.04.03.35-.23.59-.56.84-.88,1.52-.51,2.76-1.54,4.21-2.32.37-.19,1.79-.98,2.16-1.12.45-.06.87-.03,1.31.03,0,0-.05.01-.05.01.33-.18.67-.31,1.06-.36h0Z"/>
          <path class="o" d="M69.6,73.49c.35-.8.85-1.53,1.31-2.27,0,0,1.51-1.55,1.51-1.55.03-.03.04-.05.09-.05,1.1-.18,2.07-.72,3.09-1.1,0,0,3.57.05,3.57.05.73-.12,1.83-.2,2.67-.39.65-.13,1.36-.27,2.02-.35.25-.05.55-.01.75-.25,0,0,.1.11.1.11.2.22.44.35.68.5l-.04-.02c.9.32,2.32.64,3.17,1.05-.48,0-1.17-.23-1.64-.32,0,0-1.63-.38-1.63-.38,0,0-.03-.01-.04-.02-.25-.13-.49-.27-.78-.33l.18.03c-.25-.12-.46,0-.69.01-1.59.23-3.15.63-4.75.83,0,0-3.57.05-3.57.05-.51.18-2.11.6-2.88,1.11,0,0,.09-.05.09-.05l-1.74,1.29c-.37.56-.93,1.48-1.47,2.09h0Z"/>
          <path class="o" d="M95.02,79.14c-.44-.72-.57-1.78,0-2.47-.02.83-.02,1.63,0,2.47h0Z"/>
          <path class="o" d="M56.43,80.46c-1.25-1.85-2.48-3.65-4.67-4.36,2.47-.46,4.38,2.17,4.67,4.36h0Z"/>
          <path class="o" d="M104.54,75.23c-1.67-3.61-4.27-6.62-6.59-9.83-2.46-4.18-1.15-9.69,1.92-13.17,0,0,.2.15.2.15-2.08,3.74-3.46,8.49-1,12.33,1.06,1.48,2.34,2.89,3.35,4.43,1.19,1.81,2.46,3.79,2.36,6.08,0,0-.25,0-.25,0h0Z"/>
          <path class="o" d="M103.96,64.07c-.9,1.14-1.37,2.47-1.81,3.83-.45.83-1.49,1.08-2.36,1-.24.34-1.45,1.21-2.03,1.71-.34.28-.74.58-.96.97-.08.03-.17.03-.22.07-.07.04-.03.18-.06.32-.09.28-.33.37-.51.5.41-.32.39-.41.24-.87-.02-.19.07-.37.16-.48,1.29-.6,2.19-1.68,3.35-2.47.81.09,1.76-.12,2.18-.87.42-1.35.94-2.73,1.84-3.86,0,0,.2.15.2.15h0Z"/>
          <path class="o" d="M95.36,70.45c.59-.06,1.18.2,1.6.61l-.17.18c-.38-.4-.95-.6-1.43-.79h0Z"/>
        </g>
        <g id="j" data-name="Lupa">
          <path class="r" d="M105.84,96.71l11.07,11.14s9.21,9.04,12.86,12.62c.48.48.96.96.96.96l.09.09c1.34,1.21,2.18,2.98,2.18,4.94,0,3.66-2.93,6.63-6.54,6.63-2.04,0-3.36-.62-4.86-2.24l-.22-.22-9.23-9.05-5.69-5.58-9.51-8.93,8.89-10.36Z"/>
          <path class="r" d="M94.02,35.33c-6-3.81-13-5.99-20.48-5.99-8.97,0-17.26,3.14-23.95,8.45-9.84,7.81-16.22,20.33-16.22,34.43,0,2.54.21,5.02.61,7.44,3.29,20.13,19.75,35.44,39.56,35.44,8.83,0,16.99-3.04,23.61-8.19,3.44-2.68,6.47-5.92,8.96-9.6,3.13-4.62,5.42-9.94,6.63-15.69.64-3.02.97-6.17.97-9.4,0-15.69-7.9-29.42-19.69-36.89ZM104.88,77.53c-2.38,16.19-15.51,28.57-31.34,28.57s-29.7-13.09-31.52-29.96c-.14-1.28-.21-2.59-.21-3.92,0-9.96,4.02-18.92,10.43-25.12,5.63-5.44,13.1-8.76,21.3-8.76,6.99,0,13.45,2.41,18.69,6.51,7.91,6.16,13.04,16.12,13.04,27.37,0,1.81-.13,3.58-.39,5.31Z"/>
        </g>
      </g>
    </g>
    <text class="s" transform="translate(50.14 139.11) rotate(16.85)"><tspan x="0" y="0">D</tspan></text>
    <text class="s" transform="translate(56.37 140.93) rotate(12.65)"><tspan x="0" y="0">e</tspan></text>
    <text class="s" transform="translate(60.62 141.87) rotate(9.53)"><tspan x="0" y="0">r</tspan></text>
    <text class="s" transform="translate(64.22 142.51) rotate(5.15)"><tspan x="0" y="0">m</tspan></text>
    <text class="s" transform="translate(71.38 143.08) rotate(.34)"><tspan x="0" y="0">a</tspan></text>
    <text class="s" transform="translate(75.79 143.12) rotate(-4.24)"><tspan x="0" y="0">D</tspan></text>
    <text class="s" transform="translate(82.29 142.57) rotate(-8.81)"><tspan x="0" y="0">e</tspan></text>
    <text class="s" transform="translate(86.6 141.88) rotate(-11.98)"><tspan x="0" y="0">t</tspan></text>
    <text class="s" transform="translate(89.82 141.19) rotate(-15.05)"><tspan x="0" y="0">e</tspan></text>
    <text class="s" transform="translate(94.04 140.04) rotate(-18.4)"><tspan x="0" y="0">c</tspan></text>
    <text class="s" transform="translate(97.99 138.7) rotate(-21.24)"><tspan x="0" y="0">t</tspan></text>
  </g>
  <g id="l" data-name="02-Color">
    <text class="u" transform="translate(11.13 135.56) rotate(30.52)"><tspan x="0" y="0">D</tspan></text>
    <text class="u" transform="translate(16.82 138.87) rotate(28.22)"><tspan x="0" y="0">e</tspan></text>
    <text class="u" transform="translate(20.63 140.89) rotate(26.69)"><tspan x="0" y="0">t</tspan></text>
    <text class="u" transform="translate(23.27 142.22) rotate(25.16)"><tspan x="0" y="0">e</tspan></text>
    <text class="u" transform="translate(27.17 144.04) rotate(23.32)"><tspan x="0" y="0">c</tspan></text>
    <text class="u" transform="translate(31.14 145.73) rotate(21.45)"><tspan x="0" y="0">c</tspan></text>
    <text class="u" transform="translate(35.14 147.28) rotate(19.84)"><tspan x="0" y="0">i</tspan></text>
    <text class="u" transform="translate(37.95 148.3) rotate(18.08)"><tspan x="0" y="0">รณ</tspan></text>
    <text class="u" transform="translate(42.52 149.78) rotate(15.85)"><tspan x="0" y="0">n</tspan></text>
    <text class="u" transform="translate(47.08 151.05) rotate(14.07)"><tspan x="0" y="0"> </tspan></text>
    <text class="u" transform="translate(49.75 151.71) rotate(12.56)"><tspan x="0" y="0">r</tspan></text>
    <text class="u" transform="translate(53.09 152.45) rotate(10.64)"><tspan x="0" y="0">รก</tspan></text>
    <text class="u" transform="translate(57.38 153.24) rotate(8.3)"><tspan x="0" y="0">p</tspan></text>
    <text class="u" transform="translate(62.12 153.9) rotate(6.27)"><tspan x="0" y="0">i</tspan></text>
    <text class="u" transform="translate(65.09 154.23) rotate(4.2)"><tspan x="0" y="0">d</tspan></text>
    <text class="u" transform="translate(69.89 154.56) rotate(1.72)"><tspan x="0" y="0">a</tspan></text>
    <text class="u" transform="translate(74.22 154.67) rotate(-.23)"><tspan x="0" y="0">,</tspan></text>
    <text class="u" transform="translate(76.96 154.65) rotate(-1.75)"><tspan x="0" y="0"> </tspan></text>
    <text class="u" transform="translate(79.71 154.56) rotate(-3.6)"><tspan x="0" y="0">s</tspan></text>
    <text class="u" transform="translate(83.63 154.3) rotate(-5.93)"><tspan x="0" y="0">e</tspan></text>
    <text class="u" transform="translate(87.98 153.84) rotate(-8.53)"><tspan x="0" y="0">g</tspan></text>
    <text class="u" transform="translate(92.74 153.1) rotate(-11.25)"><tspan x="0" y="0">u</tspan></text>
    <text class="u" transform="translate(97.46 152.13) rotate(-13.57)"><tspan x="0" y="0">r</tspan></text>
    <text class="u" transform="translate(100.77 151.32) rotate(-15.33)"><tspan x="0" y="0">i</tspan></text>
    <text class="u" transform="translate(103.65 150.53) rotate(-17.46)"><tspan x="0" y="0">d</tspan></text>
    <text class="u" transform="translate(108.25 149.06) rotate(-19.95)"><tspan x="0" y="0">a</tspan></text>
    <text class="u" transform="translate(112.35 147.56) rotate(-22.37)"><tspan x="0" y="0">d</tspan></text>
    <text class="u" transform="translate(116.74 145.72) rotate(-24.3)"><tspan x="0" y="0"> </tspan></text>
    <text class="u" transform="translate(119.23 144.59) rotate(-25.73)"><tspan x="0" y="0">t</tspan></text>
    <text class="u" transform="translate(121.93 143.29) rotate(-27.65)"><tspan x="0" y="0">o</tspan></text>
    <text class="u" transform="translate(126.14 141.05) rotate(-29.5)"><tspan x="0" y="0">t</tspan></text>
    <text class="u" transform="translate(128.71 139.6) rotate(-31.17)"><tspan x="0" y="0">a</tspan></text>
    <text class="u" transform="translate(132.38 137.36) rotate(-32.8)"><tspan x="0" y="0">l</tspan></text>
  </g>
</svg>